<svg viewBox="0 0 100 100" xmlns="http://www.w3.org/2000/svg">
  <path fill="#ffff" d="
    M9.813,15.904 L9,18.75 l-0.813,-2.846 a4.5,4.5,0,0,0,-3.09,-3.09 L2.25,12 l2.846,-0.813 a4.5,4.5,0,0,0,3.09,-3.09 L9,5.25 l0.813,2.846 a4.5,4.5,0,0,0,3.09,3.09 L15.75,12 l-2.846,0.813 a4.5,4.5,0,0,0,-3.09,3.09 M18.259,8.715 L18,9.75 l-0.259,-1.035 a3.375,3.375,0,0,0,-2.455,-2.456 L14.25,6 l1.036,-0.259 a3.375,3.375,0,0,0,2.455,-2.456 L18,2.25 l0.259,1.035 a3.375,3.375,0,0,0,2.456,2.456 L21.75,6 l-1.035,0.259 a3.375,3.375,0,0,0,-2.456,2.456 M16.894,20.567 L16.5,21.75 l-0.394,-1.183 a2.25,2.25,0,0,0,-1.423,-1.423 L13.5,18.75 l1.183,-0.394 a2.25,2.25,0,0,0,1.423,-1.423 l0.394,-1.183 l0.394,1.183 a2.25,2.25,0,0,0,1.423,1.423 l1.183,0.394 l-1.183,0.394 a2.25,2.25,0,0,0,-1.423,1.423 Z
  "></path>
</svg>